<svg id="Capa_1" data-name="Capa 1" xmlns="http://www.w3.org/2000/svg" xmlns:xlink="http://www.w3.org/1999/xlink" viewBox="0 0 451.7 477.27"><defs><style>.cls-1,.cls-2{fill:#fff;}.cls-11,.cls-12,.cls-18,.cls-2,.cls-22,.cls-25,.cls-29,.cls-30,.cls-7{fill-rule:evenodd;}.cls-12,.cls-3{fill:#e6e6e6;}.cls-4{mask:url(#mask);}.cls-5{fill:#65c9ff;}.cls-6{mask:url(#mask-2-2);}.cls-7{fill:#d0c6ac;}.cls-8{mask:url(#mask-3);}.cls-9{fill:#ffdbb4;}.cls-10{mask:url(#mask-4-2);}.cls-11{fill-opacity:0.1;}.cls-13{mask:url(#mask-5);}.cls-14{fill:#5d5d5d;}.cls-15{mask:url(#mask-6-3);}.cls-16{opacity:0.6;}.cls-17,.cls-22{fill-opacity:0.16;}.cls-18{fill-opacity:0.7;}.cls-19{mask:url(#mask-7);}.cls-20{mask:url(#mask-8);}.cls-21{fill:#ff4f6d;}.cls-23{fill-opacity:0.6;}.cls-24{mask:url(#mask-9);}.cls-25{fill:#28354b;}.cls-26{mask:url(#mask-10);}.cls-27{fill:#724133;}.cls-28{fill:#252c2f;}.cls-29{fill:none;}.cls-30{fill:#2bf900;}</style><mask id="mask" x="22.16" y="68.18" width="409.09" height="409.09" maskUnits="userSpaceOnUse"><g transform="translate(1.7 -1.36)"><g id="mask-2"><circle id="path-1" class="cls-1" cx="225" cy="274.09" r="204.55"/></g></g></mask><mask id="mask-2-2" x="1.7" y="0" width="450" height="477.27" maskUnits="userSpaceOnUse"><g transform="translate(1.7 -1.36)"><g id="mask-4"><path id="path-3" class="cls-2" d="M20.45,274.09c0,113,91.58,204.55,204.55,204.55s204.55-91.58,204.55-204.55H450V1.36H0V274.09Z"/></g></g></mask><mask id="mask-3" x="1.7" y="61.36" width="450" height="415.91" maskUnits="userSpaceOnUse"><g transform="translate(1.7 -1.36)"><g id="mask-6"><path id="path-5" class="cls-2" d="M265.91,309.22v31.35h6.82A122.72,122.72,0,0,1,395.45,463.3v15.34H54.55V463.3A122.72,122.72,0,0,1,177.27,340.57h6.82V309.22a95.5,95.5,0,0,1-54-76.24,20.46,20.46,0,0,1-17.57-20.25V188.86a20.46,20.46,0,0,1,17.05-20.17V158.18h0A95.44,95.44,0,0,1,225,62.73h0a95.44,95.44,0,0,1,95.45,95.45v10.51a20.46,20.46,0,0,1,17.05,20.17v23.87A20.46,20.46,0,0,1,319.93,233,95.5,95.5,0,0,1,265.91,309.22Z"/></g></g></mask><mask id="mask-4-2" x="56.25" y="61.36" width="340.91" height="415.91" maskUnits="userSpaceOnUse"><g transform="translate(1.7 -1.36)"><g id="mask-6-2" data-name="mask-6"><path id="path-5-2" data-name="path-5" class="cls-2" d="M265.91,309.22v31.35h6.82A122.72,122.72,0,0,1,395.45,463.3v15.34H54.55V463.3A122.72,122.72,0,0,1,177.27,340.57h6.82V309.22a95.5,95.5,0,0,1-54-76.24,20.46,20.46,0,0,1-17.57-20.25V188.86a20.46,20.46,0,0,1,17.05-20.17V158.18h0A95.44,95.44,0,0,1,225,62.73h0a95.44,95.44,0,0,1,95.45,95.45v10.51a20.46,20.46,0,0,1,17.05,20.17v23.87A20.46,20.46,0,0,1,319.93,233,95.5,95.5,0,0,1,265.91,309.22Z"/></g></g></mask><mask id="mask-5" x="1.7" y="289.77" width="450" height="187.5" maskUnits="userSpaceOnUse"><g transform="translate(1.7 -1.36)"><g id="react-mask-2"><path id="react-path-1" class="cls-2" d="M282.89,341.07A122.74,122.74,0,0,1,395.45,463.38v15.26H54.55V463.38A122.74,122.74,0,0,1,168.83,340.94c-.05.64-.08,1.28-.08,1.93,0,20.22,25.57,36.61,57.1,36.61S283,363.09,283,342.87C283,342.26,282.93,341.67,282.89,341.07Z"/></g></g></mask><mask id="mask-6-3" x="56.25" y="298.18" width="340.91" height="179.09" maskUnits="userSpaceOnUse"><g transform="translate(1.7 -1.36)"><g id="react-mask-2-2" data-name="react-mask-2"><path id="react-path-1-2" data-name="react-path-1" class="cls-2" d="M282.89,341.07A122.74,122.74,0,0,1,395.45,463.38v15.26H54.55V463.38A122.74,122.74,0,0,1,168.83,340.94c-.05.64-.08,1.28-.08,1.93,0,20.22,25.57,36.61,57.1,36.61S283,363.09,283,342.87C283,342.26,282.93,341.67,282.89,341.07Z"/></g></g></mask><mask id="mask-7" x="194.51" y="231.82" width="64.41" height="51.14" maskUnits="userSpaceOnUse"><g transform="translate(1.7 -1.36)"><g id="react-mask-4"><path id="react-path-3" class="cls-2" d="M192.81,255.56a32.39,32.39,0,0,0,64.39-.15,3.57,3.57,0,0,0-3.15-3.48H196.17A3.64,3.64,0,0,0,192.81,255.56Z"/></g></g></mask><mask id="mask-8" x="194.51" y="250.57" width="64.41" height="56.25" maskUnits="userSpaceOnUse"><g transform="translate(1.7 -1.36)"><g id="react-mask-4-2" data-name="react-mask-4"><path id="react-path-3-2" data-name="react-path-3" class="cls-2" d="M192.81,255.56a32.39,32.39,0,0,0,64.39-.15,3.57,3.57,0,0,0-3.15-3.48H196.17A3.64,3.64,0,0,0,192.81,255.56Z"/></g></g></mask><mask id="mask-9" x="1.7" y="0" width="450" height="477.27" maskUnits="userSpaceOnUse"><g transform="translate(1.7 -1.36)"><g id="react-mask-740"><rect id="react-path-742" class="cls-1" y="1.36" width="450" height="477.27"/></g></g></mask><mask id="mask-10" x="0" y="0" width="450" height="477.27" maskUnits="userSpaceOnUse"><g transform="translate(1.7 -1.36)"><g id="react-mask-739"><path id="react-path-741" class="cls-2" d="M283.48,61C249.07,41.09,215,44.36,189.27,50.85s-41,24.92-54,52.19a115.48,115.48,0,0,0-10.8,44,57.26,57.26,0,0,0,2.12,17.42c.58,2,3.68,9.18,4.53,3.42.28-1.91-.76-4.56-.86-6.6a67.63,67.63,0,0,1,.2-8.05,59,59,0,0,1,2.81-14.64c2.26-6.8,5.14-14.17,9.55-19.9,10.91-14.2,29.8-15,44.79-22.82-1.3,2.4-6.32,6.28-4.58,9,1.2,1.86,5.75,1.29,7.92,1.23a148.55,148.55,0,0,0,17.08-2,121.6,121.6,0,0,0,25.57-7c6.85-2.56,14.67-4.93,19.81-10.36A117.3,117.3,0,0,0,283.07,109c9.58,4.91,25,7.36,30.88,17.32,6.93,11.78,3.74,26.26,5.86,39,.8,4.86,2.63,4.75,3.63.41a76.94,76.94,0,0,0,2-22.64C324.18,126,317.89,81,283.48,61Z"/></g></g></mask></defs><g id="avatarmaker"><g id="avatarmaker_Circle" data-name="avatarmaker/Circle"><g id="Circle"><g id="Circle-Background"><circle id="path-1-2" data-name="path-1" class="cls-3" cx="226.7" cy="272.73" r="204.55"/></g><g class="cls-4"><g id="ColorPaletteBlue01"><rect id="_Color" data-name="ðŸ–Color" class="cls-5" x="22.16" y="68.18" width="409.09" height="409.09"/></g></g></g><g class="cls-6"><g id="avatarmaker-2" data-name="avatarmaker"><g id="Body"><path id="path-5-3" data-name="path-5" class="cls-7" d="M265.91,309.22v31.35h6.82A122.72,122.72,0,0,1,395.45,463.3v15.34H54.55V463.3A122.72,122.72,0,0,1,177.27,340.57h6.82V309.22a95.5,95.5,0,0,1-54-76.24,20.46,20.46,0,0,1-17.57-20.25V188.86a20.46,20.46,0,0,1,17.05-20.17V158.18h0A95.44,95.44,0,0,1,225,62.73h0a95.44,95.44,0,0,1,95.45,95.45v10.51a20.46,20.46,0,0,1,17.05,20.17v23.87A20.46,20.46,0,0,1,319.93,233,95.5,95.5,0,0,1,265.91,309.22Z" transform="translate(1.7 -1.36)"/><g class="cls-8"><g id="Skin_-03-Brown" data-name="Skin/ðŸ‘¶ðŸ½-03-Brown"><g id="Color"><rect class="cls-9" x="1.7" y="61.36" width="450" height="415.91"/></g></g></g><g class="cls-10"><path id="Neck-Shadow" class="cls-11" d="M320.45,197.39v39.2a95.45,95.45,0,1,1-190.9,0V223a95.45,95.45,0,1,0,190.9,0Z" transform="translate(1.7 -1.36)"/></g></g><g id="Clothing_Shirt-Crew-Neck" data-name="Clothing/Shirt-Crew-Neck"><g id="Clothes"><path id="react-path-1-3" data-name="react-path-1" class="cls-12" d="M282.89,341.07A122.74,122.74,0,0,1,395.45,463.38v15.26H54.55V463.38A122.74,122.74,0,0,1,168.83,340.94c-.05.64-.08,1.28-.08,1.93,0,20.22,25.57,36.61,57.1,36.61S283,363.09,283,342.87C283,342.26,282.93,341.67,282.89,341.07Z" transform="translate(1.7 -1.36)"/></g><g class="cls-13"><g id="Color_Palette_Gray-01" data-name="Color/Palette/Gray-01"><rect id="_Color-2" data-name="ðŸ–Color" class="cls-14" x="1.7" y="289.77" width="450" height="187.5"/></g></g><g class="cls-15"><g id="Shadowy" class="cls-16"><g id="Hola-_" data-name="Hola-ðŸ‘‹ðŸ¼"><ellipse class="cls-17" cx="227.56" cy="344.06" rx="67.56" ry="45.88"/></g></g></g></g><g id="Face"><g id="Mouth_Smile" data-name="Mouth/Smile"><g id="Mouth"><path id="react-path-3-3" data-name="react-path-3" class="cls-18" d="M192.81,255.56a32.39,32.39,0,0,0,64.39-.15,3.57,3.57,0,0,0-3.15-3.48H196.17A3.64,3.64,0,0,0,192.81,255.56Z" transform="translate(1.7 -1.36)"/></g><g class="cls-19"><rect id="Teeth" class="cls-1" x="201.14" y="231.82" width="52.84" height="27.27" rx="8.52"/></g><g class="cls-20"><g id="Tongue"><circle class="cls-21" cx="218.18" cy="288.07" r="18.75"/><circle class="cls-21" cx="235.23" cy="288.07" r="18.75"/></g></g></g><g id="Nose_Default" data-name="Nose/Default"><path id="Nose" class="cls-22" d="M204.55,223c0,7.54,9.15,13.64,20.45,13.64h0c11.3,0,20.45-6.1,20.45-13.64" transform="translate(1.7 -1.36)"/></g><g id="Eyes_Default-_" data-name="Eyes/Default-ðŸ˜€"><circle id="Eye" class="cls-23" cx="182.39" cy="190.91" r="10.23"/><circle id="Eye-2" data-name="Eye" class="cls-23" cx="271.02" cy="190.91" r="10.23"/></g><g id="Eyebrow_Outline_Default" data-name="Eyebrow/Outline/Default"><g id="I-Browse"><path id="Eyebrow" class="cls-23" d="M156.19,170.38c6.67-9.39,25-14.65,40.72-10.78a3.41,3.41,0,1,0,1.63-6.62c-18.3-4.5-39.49,1.6-47.91,13.45a3.41,3.41,0,1,0,5.56,3.95Z" transform="translate(1.7 -1.36)"/><path id="Eyebrow-2" data-name="Eyebrow" class="cls-23" d="M293.81,170.38c-6.67-9.39-25-14.65-40.72-10.78a3.41,3.41,0,1,1-1.63-6.62c18.3-4.5,39.49,1.6,47.91,13.45a3.41,3.41,0,1,1-5.56,3.95Z" transform="translate(1.7 -1.36)"/></g></g></g><g id="Top"><g class="cls-24"><g id="Top_Short-Hair_Short-Round" data-name="Top/Short-Hair/Short-Round"><g id="Short-Hair"><path id="react-path-741-2" data-name="react-path-741" class="cls-25" d="M283.48,61C249.07,41.09,215,44.36,189.27,50.85s-41,24.92-54,52.19a115.48,115.48,0,0,0-10.8,44,57.26,57.26,0,0,0,2.12,17.42c.58,2,3.68,9.18,4.53,3.42.28-1.91-.76-4.56-.86-6.6a67.63,67.63,0,0,1,.2-8.05,59,59,0,0,1,2.81-14.64c2.26-6.8,5.14-14.17,9.55-19.9,10.91-14.2,29.8-15,44.79-22.82-1.3,2.4-6.32,6.28-4.58,9,1.2,1.86,5.75,1.29,7.92,1.23a148.55,148.55,0,0,0,17.08-2,121.6,121.6,0,0,0,25.57-7c6.85-2.56,14.67-4.93,19.81-10.36A117.3,117.3,0,0,0,283.07,109c9.58,4.91,25,7.36,30.88,17.32,6.93,11.78,3.74,26.26,5.86,39,.8,4.86,2.63,4.75,3.63.41a76.94,76.94,0,0,0,2-22.64C324.18,126,317.89,81,283.48,61Z" transform="translate(1.7 -1.36)"/></g><g class="cls-26"><g id="Skin_-03-Brown-2" data-name="Skin/ðŸ‘¶ðŸ½-03-Brown"><g id="Color-2" data-name="Color"><rect class="cls-27" width="450" height="477.27"/></g></g></g><g id="Top__Resources_Prescription-02" data-name="Top/_Resources/Prescription-02"><g id="Wayfarers"><path id="Left" class="cls-28" d="M172.16,228.07h-4.7c-23.74,0-37.91-13.07-37.91-34.94,0-17.69,3.09-34.95,40.1-34.95h5c37,0,40.11,17.26,40.11,34.95C214.77,213.7,197.25,228.07,172.16,228.07Zm-2.75-59.66c-33,0-33,11.66-33,26.42,0,12,5.32,26.42,30.64,26.42h5.16c21.08,0,35.79-10.86,35.79-26.42,0-14.76,0-26.42-33-26.42Z" transform="translate(1.7 -1.36)"/><path id="Right" class="cls-28" d="M277.84,228.07h-4.7c-23.74,0-37.91-13.07-37.91-34.94,0-17.69,3.09-34.95,40.11-34.95h5c37,0,40.1,17.26,40.1,34.95C320.45,213.7,302.93,228.07,277.84,228.07Zm-2.75-59.66c-33,0-33,11.66-33,26.42,0,12,5.31,26.42,30.63,26.42h5.16c21.08,0,35.8-10.86,35.8-26.42,0-14.76,0-26.42-33.05-26.42Z" transform="translate(1.7 -1.36)"/><path id="Stuff" class="cls-28" d="M119.24,168c1.18-1.15,14.07-9.84,50.36-9.84,30.43,0,36.87,3.16,46.62,7.93l.72.35a28.83,28.83,0,0,0,8.19,1.55,29,29,0,0,0,7.78-1.48c11.13-5.41,22-8.35,47.49-8.35,36.29,0,49.18,8.69,50.36,9.84a5,5,0,0,1,5,4.92v4.92a5,5,0,0,1-5,4.92s-11.76,0-11.76,4.92-3.35-7.12-3.35-9.84v-4.79a90,90,0,0,0-35.25-6.73c-20.19,0-30.24,3.58-38.86,7.13l.09.24v3.38l-3.78,9.12-4.67-1.84a19.17,19.17,0,0,0-2.56-.77,23.61,23.61,0,0,0-10.22-.47,13.25,13.25,0,0,0-3.22,1.07l-4.5,2.21-4.51-8.8.2-3.91.14-.34c-7.44-3.46-14.3-7-38.91-7a89.78,89.78,0,0,0-35.25,6.73v4.79c0,2.72-5,14.75-5,9.84s-10.07-4.92-10.07-4.92a5,5,0,0,1-5-4.92v-4.92A5,5,0,0,1,119.24,168Z" transform="translate(1.7 -1.36)"/></g></g></g></g></g></g></g><path class="cls-29" d="M272.7,190.28l-7.5,0c-.51,0-1.11.05-1.38.48a9.41,9.41,0,0,0,1.7.45,3,3,0,0,0,1.22-.19,10.33,10.33,0,0,1,1.76-.22l2-.23C271.2,190.5,272,190.4,272.7,190.28Z" transform="translate(1.7 -1.36)"/><path class="cls-29" d="M271.34,196c.2.17.48-.13.57-.38a15,15,0,0,0,.59-5.34,2.37,2.37,0,0,0-.14-.92.79.79,0,0,0-.74-.5" transform="translate(1.7 -1.36)"/><path class="cls-30" d="M269.06,202.49a10.64,10.64,0,0,0,6.87-2.41,10.46,10.46,0,0,0,2.51-3.18,10.22,10.22,0,0,0-1.68-11.63,10.22,10.22,0,0,0-15.44.64,10.3,10.3,0,0,0-2.26,7.62,10.07,10.07,0,0,0,2.62,5.53A10.57,10.57,0,0,0,269.06,202.49Z" transform="translate(1.7 -1.36)"/></g></g><path class="cls-29" d="M278.12,197" transform="translate(1.7 -1.36)"/><path class="cls-30" d="M180.48,202.49a10.68,10.68,0,0,0,6.87-2.42,10.13,10.13,0,0,0,3.59-7.22,10.18,10.18,0,0,0-2.76-7.58,10.21,10.21,0,0,0-15.44.63,10.37,10.37,0,0,0-2.26,7.63,10.11,10.11,0,0,0,2.62,5.53A10.6,10.6,0,0,0,180.48,202.49Z" transform="translate(1.7 -1.36)"/></svg>